<svg id="Layer_1" data-name="Layer 1" xmlns="http://www.w3.org/2000/svg" viewBox="0 0 464 464"><defs><style>.cls-1{fill:#46a357;}.cls-2{fill:#fff;}</style></defs><circle class="cls-1" cx="232" cy="232" r="232"/><rect class="cls-2" x="175.81" y="311.26" width="15" height="52"/><path class="cls-2" d="M218.52,331.25c12.38,7.66,43.9,7.82,67.51-8.8,17-11.93,23.68-28.22,29-41a127.14,127.14,0,0,0,9-41c1.81-31.67-8.84-40.53-5-60,2.26-11.49,9.83-27.94,36-45a137.2,137.2,0,0,0-70,7c-38.21,14.59-58.23,42.68-67.31,55.8-14.29,20.65-19.38,38.32-25.69,60.2-3.26,11.32-14.9,51.69-2,60,2.72,1.76,5.14,1.19,14,5A97.46,97.46,0,0,1,218.52,331.25Z" transform="translate(-18.84 -24.99)"/><path class="cls-2" d="M292,127.45A177.4,177.4,0,0,0,232.4,164C177,215.72,174.22,287.31,174,304.45a83.5,83.5,0,0,1-18.38-23.81c-15.21-29.71-7.11-59.51-4.62-68.69,10.66-39.27,40.61-59.9,49-65.5C239.67,120,281.6,125.72,292,127.45Z" transform="translate(-18.84 -24.99)"/><path class="cls-2" d="M250.84,257" transform="translate(-18.84 -24.99)"/></svg>